<svg xmlns="http://www.w3.org/2000/svg" viewBox="0 0 55 45">
  <defs>
    <style>
      .a {
        fill: #0a0a0a;
      }
    </style>
  </defs>
  <title>logo</title>
  <path class="a" d="M54.96245,6.4174c-.20854-.50847-.2884-1.05866-.52179-1.55826a5.19477,5.19477,0,0,0-1.0063-1.58044,6.82023,6.82023,0,0,0-1.324-1.158,5.5134,5.5134,0,0,0-1.93185-.75606c-1.316-.37892-2.6533-.6966-3.9764-1.048a2.27434,2.27434,0,0,1-.86964-.26533A33.97106,33.97106,0,0,0,41.65068.04859a10.39787,10.39787,0,0,1-1.43846.39933,11.59017,11.59017,0,0,0-4.78216,2.77133,30.502,30.502,0,0,0-2.09513,2.41814c-.77114.86609-1.47129,1.79164-2.2238,2.67459-.09406.1411-.28751.08076-.42595.11092-1.97711-2.002-3.97906-3.98-5.96327-5.97481A7.09219,7.09219,0,0,0,21.624.76205,2.93205,2.93205,0,0,0,20.50325.57747c-.30526.03017-.59988-.13311-.90336-.05679-.44813.12246-.93-.01952-1.3657.16328a7.19636,7.19636,0,0,0-4.965,3.97817c-.37448-.12423-.75783-.20942-1.13941-.30437a6.79262,6.79262,0,0,0-4.38105.34342,8.19857,8.19857,0,0,0-2.40927,1.608,9.02246,9.02246,0,0,0-1.111,1.49969c-.18014.37625-.38424.74186-.53244,1.1332-.09229.29373-.15706.59544-.25645.88739-.18458.49428-.0355,1.03115-.17215,1.53608a10.36915,10.36915,0,0,1,.09583,1.24235,14.85722,14.85722,0,0,0,.46943,1.5343,4.80735,4.80735,0,0,1,.42417,1.064,5.94408,5.94408,0,0,0-2.128,1.4784,6.8139,6.8139,0,0,0-1.915,3.20259C.15624,20.03.032,20.15068.03555,20.314c-.05413.80309-.02662,1.608-.02928,2.41193a1.632,1.632,0,0,0,.1198.76227c.16151.307.19612.66111.34963.97258A7.65665,7.65665,0,0,0,1.915,26.7573q7.12,7.12132,14.24264,14.24264a18.73415,18.73415,0,0,0,2.07916,1.93718,10.077,10.077,0,0,0,3.42622,1.74639,7.18719,7.18719,0,0,1,1.06487.27509c.883.07365,1.77124.024,2.65685.03638a2.65287,2.65287,0,0,0,.94773-.11358c.32922-.15441.70814-.142,1.04357-.28219a10.12473,10.12473,0,0,0,4.57628-2.96389,18.9797,18.9797,0,0,0,1.22193-1.62393Q43.4623,25.37475,53.76358,10.747A5.76478,5.76478,0,0,0,54.78231,8.469a4.36025,4.36025,0,0,1,.18547-.57326A8.2262,8.2262,0,0,0,54.96245,6.4174Zm-37.692,1.03914a2.83959,2.83959,0,0,1,1.58843-2.02946,1.416,1.416,0,0,1,.77558-.15175,2.164,2.164,0,0,1,1.07641.14819,3.637,3.637,0,0,1,1.23614.946q3.8362,3.84019,7.67505,7.67771c.49428.51292,1.03736.98323,1.48194,1.5414a3.29154,3.29154,0,0,1,.51824,1.19265,2.39346,2.39346,0,0,1-.3097,1.39232,2.616,2.616,0,0,1-1.66652,1.2956,5.90849,5.90849,0,0,1-1.1616-.01065,3.45358,3.45358,0,0,1-1.1962-.6824q-4.59092-4.59225-9.18451-9.18362A2.86517,2.86517,0,0,1,17.27048,7.45654Zm-9.18539,3.302A2.89352,2.89352,0,0,1,9.19433,9.27125a5.47558,5.47558,0,0,1,.75695-.331,5.93472,5.93472,0,0,1,1.14384-.00266,2.791,2.791,0,0,1,1.15273.64868q6.96691,6.96691,13.93471,13.93382a2.79779,2.79779,0,0,1,.80664,1.15272,1.99268,1.99268,0,0,1,.17925,1.15006,3.64335,3.64335,0,0,1-.47564,1.16159,2.67486,2.67486,0,0,1-1.49348.98057,2.56447,2.56447,0,0,1-2.31964-.69838q-5.8315-5.83682-11.66832-11.6692c-.87851-.89715-1.797-1.75615-2.648-2.67992A2.42734,2.42734,0,0,1,8.08509,10.75852ZM18.04074,31.283c-.47386.52445-.82084,1.25389-1.53962,1.48195a2.643,2.643,0,0,1-1.11989.05945,2.7772,2.7772,0,0,1-1.65055-.93176Q9.55239,27.729,5.39186,23.54672a2.48414,2.48414,0,0,1-.51114-2.687,2.59222,2.59222,0,0,1,2.05343-1.55116A2.87106,2.87106,0,0,1,8.251,19.541a4.729,4.729,0,0,1,1.2104,1.001q3.63387,3.64185,7.27573,7.2775a6.75014,6.75014,0,0,1,1.27785,1.4713c.095.23693.15618.48629.23338.73121A1.7716,1.7716,0,0,1,18.04074,31.283ZM49.95934,7.93129Q40.10662,21.937,30.25036,35.93915c-.63005.82173-1.16781,1.71178-1.81827,2.51842a5.31838,5.31838,0,0,1-3.1387,1.79874c-.61851.01953-1.23791.02218-1.85553-.00266A5.72294,5.72294,0,0,1,20.663,38.8001c-.591-.536-1.1261-1.12965-1.72243-1.65854.00178-.087.00178-.17393.00178-.26a7.83816,7.83816,0,0,0,2.29479-1.7881,6.363,6.363,0,0,0,1.36481-2.5761,3.52427,3.52427,0,0,1,1.04.17837c.5209.0417,1.04446.00976,1.56714.02218a14.272,14.272,0,0,0,1.5059-.2254A8.43553,8.43553,0,0,0,29.36208,31.031a6.938,6.938,0,0,0,2.45807-4.93124c-.01065-.44015.01686-.88207-.0142-1.32133a2.79931,2.79931,0,0,1-.07543-1.00453A7.15783,7.15783,0,0,0,36.274,17.67308a6.37391,6.37391,0,0,0-.13133-2.22736A7.12627,7.12627,0,0,0,34.47257,12.205c-.13489-.09583-.10294-.25823-.0914-.39933.48629-.67175,1.08084-1.25566,1.57423-1.92209.45168-.58035.98323-1.09327,1.41007-1.69226.25823-.307.51646-.61407.7809-.91668a6.68383,6.68383,0,0,1,3.38451-2.26551,4.68587,4.68587,0,0,1,1.51123-.26178,7.03694,7.03694,0,0,1,1.83867.10826c.5138.13932,1.03559.244,1.54318.41a3.31836,3.31836,0,0,1,.99033.25468,5.93451,5.93451,0,0,1,.8306.19345,6.02965,6.02965,0,0,1,1.36924.433,1.795,1.795,0,0,1,.64779.96992A1.4421,1.4421,0,0,1,49.95934,7.93129Z"/>
</svg>
