<svg version="1.1"
      xmlns="http://www.w3.org/2000/svg"
      xmlns:xlink="http://www.w3.org/1999/xlink"  id="snapshot-32845" width="250" height="250" viewBox="0 0 250 250"><desc>This image was made on Patterninja.com</desc><defs>
<!-- image 00295 -->
<g id="transformed-00295" data-image="00295" transform="translate(100, 172.82000000000002) rotate(0, 49, 40.17999999999998)"><g><svg version="1.1" width="98px" height="80.35999999999996px" viewBox="0 0 98 80.35999999999996"><g id="original-00295"><svg xmlns="http://www.w3.org/2000/svg" viewBox="0 0 300 246" xmlns:xlink="http://www.w3.org/1999/xlink" version="1.1" preserveAspectRatio="xMidYMid meet">
  <path d="M299.804 35.005c-1.138-2.773-1.574-5.774-2.847-8.5a28.336 28.336 0 0 0-5.489-8.62 37.203 37.203 0 0 0-7.222-6.317 30.074 30.074 0 0 0-10.538-4.124c-7.178-2.067-14.473-3.8-21.69-5.717A12.406 12.406 0 0 1 247.274.28a185.304 185.304 0 0 0-20.083-.015 56.718 56.718 0 0 1-7.846 2.178 63.222 63.222 0 0 0-26.086 15.117 166.381 166.381 0 0 0-11.428 13.19c-4.207 4.725-8.026 9.773-12.13 14.59-.514.77-1.569.44-2.324.605-10.785-10.92-21.705-21.71-32.528-32.591a38.686 38.686 0 0 0-16.899-9.197 15.994 15.994 0 0 0-6.113-1.007c-1.665.164-3.272-.726-4.928-.31-2.444.668-5.073-.106-7.45.89a39.254 39.254 0 0 0-27.082 21.7c-2.043-.677-4.134-1.142-6.216-1.66a37.052 37.052 0 0 0-23.897 1.874 44.721 44.721 0 0 0-13.142 8.771 49.215 49.215 0 0 0-6.06 8.18c-.983 2.053-2.096 4.047-2.905 6.182-.503 1.602-.857 3.248-1.399 4.84-1.007 2.696-.193 5.625-.939 8.38.31 2.246.485 4.509.523 6.776a81.043 81.043 0 0 0 2.56 8.37c1 1.835 1.777 3.783 2.314 5.803A32.424 32.424 0 0 0 11.61 91.01a37.168 37.168 0 0 0-10.446 17.47c-.314.779-.992 1.437-.973 2.328-.295 4.38-.145 8.771-.16 13.157a8.902 8.902 0 0 0 .654 4.158c.881 1.674 1.07 3.606 1.907 5.305a41.765 41.765 0 0 0 7.851 12.527 592732.59 592732.59 0 0 0 77.69 77.69 102.19 102.19 0 0 0 11.342 10.567 54.968 54.968 0 0 0 18.689 9.526c1.972.351 3.914.853 5.809 1.5 4.816.402 9.661.131 14.492.199a14.47 14.47 0 0 0 5.17-.62c1.796-.842 3.863-.774 5.692-1.539a55.228 55.228 0 0 0 24.963-16.167 103.53 103.53 0 0 0 6.665-8.858c37.413-53.227 74.85-106.437 112.31-159.63a31.446 31.446 0 0 0 5.557-12.427c.265-1.064.603-2.109 1.012-3.127a44.872 44.872 0 0 0-.03-8.064zM94.203 40.674a15.49 15.49 0 0 1 8.664-11.07 7.724 7.724 0 0 1 4.23-.828 11.804 11.804 0 0 1 5.872.808 19.839 19.839 0 0 1 6.743 5.16 85444.188 85444.188 0 0 0 41.866 41.88c2.696 2.798 5.658 5.364 8.083 8.408a17.955 17.955 0 0 1 2.827 6.506 13.056 13.056 0 0 1-1.69 7.595 14.27 14.27 0 0 1-9.09 7.067 32.23 32.23 0 0 1-6.336-.058 18.838 18.838 0 0 1-6.525-3.723c-16.695-16.7-33.395-33.398-50.1-50.094a15.629 15.629 0 0 1-4.544-11.651zM44.098 58.685a15.783 15.783 0 0 1 6.051-8.113 29.868 29.868 0 0 1 4.13-1.805 32.373 32.373 0 0 1 6.239-.015 15.224 15.224 0 0 1 6.287 3.539l76.011 76.005a15.261 15.261 0 0 1 4.4 6.288 10.87 10.87 0 0 1 .978 6.274 19.874 19.874 0 0 1-2.595 6.336 14.59 14.59 0 0 1-8.146 5.349 13.989 13.989 0 0 1-12.653-3.81A107620.776 107620.776 0 0 0 61.152 85.08c-4.792-4.893-9.803-9.58-14.445-14.618A13.24 13.24 0 0 1 44.1 58.685zm54.306 111.956c-2.584 2.861-4.477 6.84-8.398 8.084-1.99.544-4.073.654-6.109.324a15.149 15.149 0 0 1-9.003-5.082 14749.44 14749.44 0 0 1-45.486-45.525 13.55 13.55 0 0 1-2.789-14.657 14.14 14.14 0 0 1 11.201-8.461c2.461-.15 4.922.285 7.184 1.267a25.796 25.796 0 0 1 6.602 5.46 28784.768 28784.768 0 0 0 39.687 39.698 36.82 36.82 0 0 1 6.97 8.025c.519 1.293.853 2.653 1.274 3.989a9.664 9.664 0 0 1-1.133 6.878zM272.513 43.263A647062.699 647062.699 0 0 1 165.005 196.04c-3.437 4.482-6.37 9.337-9.918 13.737a29.01 29.01 0 0 1-17.121 9.812c-3.374.106-6.753.12-10.122-.015a31.217 31.217 0 0 1-15.136-7.929c-3.224-2.923-6.142-6.162-9.395-9.047.01-.474.01-.948.01-1.418a42.755 42.755 0 0 0 12.517-9.753 34.709 34.709 0 0 0 7.445-14.053c1.929.038 3.841.366 5.673.973 2.841.228 5.697.054 8.548.121a77.85 77.85 0 0 0 8.214-1.23 46.014 46.014 0 0 0 14.44-7.971 37.845 37.845 0 0 0 13.408-26.899c-.058-2.4.092-4.812-.078-7.208a15.27 15.27 0 0 1-.411-5.479 39.044 39.044 0 0 0 24.784-33.279c.477-4.06.234-8.173-.717-12.15a38.872 38.872 0 0 0-9.11-17.677c-.736-.522-.561-1.408-.498-2.178 2.652-3.664 5.895-6.85 8.587-10.485 2.463-3.165 5.363-5.963 7.691-9.23 1.409-1.675 2.817-3.35 4.26-5a36.459 36.459 0 0 1 18.462-12.358 25.56 25.56 0 0 1 8.243-1.428 38.385 38.385 0 0 1 10.03.59c2.802.76 5.648 1.331 8.417 2.237a18.1 18.1 0 0 1 5.402 1.389c1.534.242 3.048.595 4.53 1.055a32.89 32.89 0 0 1 7.47 2.362 9.791 9.791 0 0 1 3.533 5.29 7.866 7.866 0 0 1-1.65 4.444z" fill="rgba(243, 243, 242, 1)" stroke="none"/>
</svg>
</g></svg></g></g>
<!-- /image 00295 -->

<!-- image 99899 -->
<g id="transformed-99899" data-image="99899" transform="translate(-24.01020301937138, 45.81163352411547) rotate(0, 49.01020301937138, 40.18836647588453)"><g><svg version="1.1" width="98.02040603874276px" height="80.37673295176906px" viewBox="0 0 98.02040603874276 80.37673295176906"><g id="original-99899"><svg xmlns="http://www.w3.org/2000/svg" viewBox="0 0 300 246" xmlns:xlink="http://www.w3.org/1999/xlink" version="1.1" preserveAspectRatio="xMidYMid meet">
  <path d="M299.804 35.005c-1.138-2.773-1.574-5.774-2.847-8.5a28.336 28.336 0 0 0-5.489-8.62 37.203 37.203 0 0 0-7.222-6.317 30.074 30.074 0 0 0-10.538-4.124c-7.178-2.067-14.473-3.8-21.69-5.717A12.406 12.406 0 0 1 247.274.28a185.304 185.304 0 0 0-20.083-.015 56.718 56.718 0 0 1-7.846 2.178 63.222 63.222 0 0 0-26.086 15.117 166.381 166.381 0 0 0-11.428 13.19c-4.207 4.725-8.026 9.773-12.13 14.59-.514.77-1.569.44-2.324.605-10.785-10.92-21.705-21.71-32.528-32.591a38.686 38.686 0 0 0-16.899-9.197 15.994 15.994 0 0 0-6.113-1.007c-1.665.164-3.272-.726-4.928-.31-2.444.668-5.073-.106-7.45.89a39.254 39.254 0 0 0-27.082 21.7c-2.043-.677-4.134-1.142-6.216-1.66a37.052 37.052 0 0 0-23.897 1.874 44.721 44.721 0 0 0-13.142 8.771 49.215 49.215 0 0 0-6.06 8.18c-.983 2.053-2.096 4.047-2.905 6.182-.503 1.602-.857 3.248-1.399 4.84-1.007 2.696-.193 5.625-.939 8.38.31 2.246.485 4.509.523 6.776a81.043 81.043 0 0 0 2.56 8.37c1 1.835 1.777 3.783 2.314 5.803A32.424 32.424 0 0 0 11.61 91.01a37.168 37.168 0 0 0-10.446 17.47c-.314.779-.992 1.437-.973 2.328-.295 4.38-.145 8.771-.16 13.157a8.902 8.902 0 0 0 .654 4.158c.881 1.674 1.07 3.606 1.907 5.305a41.765 41.765 0 0 0 7.851 12.527 592732.59 592732.59 0 0 0 77.69 77.69 102.19 102.19 0 0 0 11.342 10.567 54.968 54.968 0 0 0 18.689 9.526c1.972.351 3.914.853 5.809 1.5 4.816.402 9.661.131 14.492.199a14.47 14.47 0 0 0 5.17-.62c1.796-.842 3.863-.774 5.692-1.539a55.228 55.228 0 0 0 24.963-16.167 103.53 103.53 0 0 0 6.665-8.858c37.413-53.227 74.85-106.437 112.31-159.63a31.446 31.446 0 0 0 5.557-12.427c.265-1.064.603-2.109 1.012-3.127a44.872 44.872 0 0 0-.03-8.064zM94.203 40.674a15.49 15.49 0 0 1 8.664-11.07 7.724 7.724 0 0 1 4.23-.828 11.804 11.804 0 0 1 5.872.808 19.839 19.839 0 0 1 6.743 5.16 85444.188 85444.188 0 0 0 41.866 41.88c2.696 2.798 5.658 5.364 8.083 8.408a17.955 17.955 0 0 1 2.827 6.506 13.056 13.056 0 0 1-1.69 7.595 14.27 14.27 0 0 1-9.09 7.067 32.23 32.23 0 0 1-6.336-.058 18.838 18.838 0 0 1-6.525-3.723c-16.695-16.7-33.395-33.398-50.1-50.094a15.629 15.629 0 0 1-4.544-11.651zM44.098 58.685a15.783 15.783 0 0 1 6.051-8.113 29.868 29.868 0 0 1 4.13-1.805 32.373 32.373 0 0 1 6.239-.015 15.224 15.224 0 0 1 6.287 3.539l76.011 76.005a15.261 15.261 0 0 1 4.4 6.288 10.87 10.87 0 0 1 .978 6.274 19.874 19.874 0 0 1-2.595 6.336 14.59 14.59 0 0 1-8.146 5.349 13.989 13.989 0 0 1-12.653-3.81A107620.776 107620.776 0 0 0 61.152 85.08c-4.792-4.893-9.803-9.58-14.445-14.618A13.24 13.24 0 0 1 44.1 58.685zm54.306 111.956c-2.584 2.861-4.477 6.84-8.398 8.084-1.99.544-4.073.654-6.109.324a15.149 15.149 0 0 1-9.003-5.082 14749.44 14749.44 0 0 1-45.486-45.525 13.55 13.55 0 0 1-2.789-14.657 14.14 14.14 0 0 1 11.201-8.461c2.461-.15 4.922.285 7.184 1.267a25.796 25.796 0 0 1 6.602 5.46 28784.768 28784.768 0 0 0 39.687 39.698 36.82 36.82 0 0 1 6.97 8.025c.519 1.293.853 2.653 1.274 3.989a9.664 9.664 0 0 1-1.133 6.878zM272.513 43.263A647062.699 647062.699 0 0 1 165.005 196.04c-3.437 4.482-6.37 9.337-9.918 13.737a29.01 29.01 0 0 1-17.121 9.812c-3.374.106-6.753.12-10.122-.015a31.217 31.217 0 0 1-15.136-7.929c-3.224-2.923-6.142-6.162-9.395-9.047.01-.474.01-.948.01-1.418a42.755 42.755 0 0 0 12.517-9.753 34.709 34.709 0 0 0 7.445-14.053c1.929.038 3.841.366 5.673.973 2.841.228 5.697.054 8.548.121a77.85 77.85 0 0 0 8.214-1.23 46.014 46.014 0 0 0 14.44-7.971 37.845 37.845 0 0 0 13.408-26.899c-.058-2.4.092-4.812-.078-7.208a15.27 15.27 0 0 1-.411-5.479 39.044 39.044 0 0 0 24.784-33.279c.477-4.06.234-8.173-.717-12.15a38.872 38.872 0 0 0-9.11-17.677c-.736-.522-.561-1.408-.498-2.178 2.652-3.664 5.895-6.85 8.587-10.485 2.463-3.165 5.363-5.963 7.691-9.23 1.409-1.675 2.817-3.35 4.26-5a36.459 36.459 0 0 1 18.462-12.358 25.56 25.56 0 0 1 8.243-1.428 38.385 38.385 0 0 1 10.03.59c2.802.76 5.648 1.331 8.417 2.237a18.1 18.1 0 0 1 5.402 1.389c1.534.242 3.048.595 4.53 1.055a32.89 32.89 0 0 1 7.47 2.362 9.791 9.791 0 0 1 3.533 5.29 7.866 7.866 0 0 1-1.65 4.444z" fill="rgba(243, 243, 242, 1)" stroke="none"/>
</svg>
</g></svg></g></g>
<!-- /image 99899 -->
</defs><rect x="0" y="0" width="250" height="250" fill="rgba(255, 255, 255, 1)"></rect><use xlink:href="#transformed-00295" transform="translate(-250, -250)"></use><use xlink:href="#transformed-00295" transform="translate(0, -250)"></use><use xlink:href="#transformed-00295" transform="translate(250, -250)"></use><use xlink:href="#transformed-00295" transform="translate(-250, 0)"></use><use xlink:href="#transformed-00295" transform="translate(0, 0)"></use><use xlink:href="#transformed-00295" transform="translate(250, 0)"></use><use xlink:href="#transformed-00295" transform="translate(-250, 250)"></use><use xlink:href="#transformed-00295" transform="translate(0, 250)"></use><use xlink:href="#transformed-00295" transform="translate(250, 250)"></use><use xlink:href="#transformed-99899" transform="translate(-250, -250)"></use><use xlink:href="#transformed-99899" transform="translate(0, -250)"></use><use xlink:href="#transformed-99899" transform="translate(250, -250)"></use><use xlink:href="#transformed-99899" transform="translate(-250, 0)"></use><use xlink:href="#transformed-99899" transform="translate(0, 0)"></use><use xlink:href="#transformed-99899" transform="translate(250, 0)"></use><use xlink:href="#transformed-99899" transform="translate(-250, 250)"></use><use xlink:href="#transformed-99899" transform="translate(0, 250)"></use><use xlink:href="#transformed-99899" transform="translate(250, 250)"></use></svg>