<svg xmlns="http://www.w3.org/2000/svg" class="c-symbolset">
    <symbol id="c-symbol-add" viewBox="0 0 24 24">
      <title>c-symbol-add icon</title>
      <path d="M18.984 12.984h-6v6h-1.969v-6h-6v-1.969h6v-6h1.969v6h6v1.969z"/>
    </symbol>
    <symbol id="c-symbol-arrow" viewBox="0 0 24 24">
      <title>c-symbol-arrow icon</title>
      <path d="M8 8.586L6.586 10 12 15.414 17.414 10 16 8.586l-4 4z"/>
    </symbol>
    <symbol id="c-symbol-arrow_back" viewBox="0 0 24 24">
      <title>c-symbol-arrow_back icon</title>
      <path d="M20.016 11.016v1.969H7.828l5.578 5.625L12 20.016 3.984 12 12 3.984l1.406 1.406-5.578 5.625h12.188z"/>
    </symbol>
    <symbol id="c-symbol-arrow_forward" viewBox="0 0 24 24">
      <title>c-symbol-arrow_forward icon</title>
      <path d="M3.984 12.984v-1.969h12.188L10.594 5.39 12 3.984 20.016 12 12 20.016l-1.406-1.406 5.578-5.625H3.984z"/>
    </symbol>
    <symbol id="c-symbol-close" viewBox="0 0 24 24">
      <title>c-symbol-close icon</title>
      <path d="M4.293 5.707l14 14 1.414-1.414-14-14z"/><path d="M5.707 19.707l14-14-1.414-1.414-14 14z"/>
    </symbol>
    <symbol id="c-symbol-facebook" viewBox="0 0 24 24">
      <title>c-symbol-facebook icon</title>
      <path d="M19.5 0C21.984 0 24 2.016 24 4.5v15c0 2.483-2.016 4.499-4.5 4.499h-2.938v-9.297h3.11l.468-3.624h-3.578V8.766c0-1.047.281-1.75 1.797-1.75L20.265 7V3.766c-.328-.047-1.469-.141-2.78-.141-2.767 0-4.673 1.687-4.673 4.78v2.673H9.688v3.624h3.124V24H4.5a4.501 4.501 0 0 1-4.5-4.5v-15C0 2.017 2.016 0 4.5 0h15z"/>
    </symbol>
    <symbol id="c-symbol-hamburger" viewBox="0 0 24 24">
      <title>c-symbol-hamburger icon</title>
      <path fill-rule="evenodd" d="M2 5h20v2H2V5zm0 12h20v2H2v-2zm0-6h20v2H2v-2z"/>
    </symbol>
    <symbol id="c-symbol-instagram" viewBox="0 0 24 24">
      <title>c-symbol-instagram icon</title>
      <path d="M16 12c0-2.203-1.797-4-4-4-2.203 0-4 1.797-4 4 0 2.203 1.797 4 4 4 2.203 0 4-1.797 4-4zm2.156 0A6.148 6.148 0 0 1 12 18.156 6.148 6.148 0 0 1 5.844 12 6.148 6.148 0 0 1 12 5.844 6.148 6.148 0 0 1 18.156 12zm1.688-6.406c0 .797-.641 1.437-1.437 1.437a1.434 1.434 0 0 1-1.437-1.437c0-.796.641-1.437 1.437-1.437s1.437.641 1.437 1.437zM12 2.156c-1.75 0-5.5-.141-7.078.484a3.838 3.838 0 0 0-1.375.906 3.825 3.825 0 0 0-.906 1.375c-.625 1.578-.484 5.328-.484 7.078s-.141 5.5.484 7.078c.219.547.484.953.906 1.375.422.422.828.688 1.375.906 1.578.625 5.328.484 7.078.484s5.5.141 7.078-.484a3.838 3.838 0 0 0 1.375-.906c.422-.422.688-.828.906-1.375.625-1.578.484-5.328.484-7.078s.141-5.5-.484-7.078a3.838 3.838 0 0 0-.906-1.375 3.825 3.825 0 0 0-1.375-.906C17.5 2.015 13.75 2.156 12 2.156zM24 12c0 1.656.016 3.297-.078 4.953-.094 1.922-.531 3.625-1.937 5.031-1.406 1.406-3.109 1.844-5.031 1.937-1.656.094-3.297.078-4.953.078-1.656 0-3.297.016-4.953-.078-1.922-.094-3.625-.531-5.031-1.937C.611 20.578.173 18.875.08 16.953-.014 15.297.002 13.656.002 12c0-1.656-.016-3.297.078-4.953.094-1.922.531-3.625 1.937-5.031C3.423.61 5.126.172 7.048.079c1.656-.094 3.297-.078 4.953-.078 1.656 0 3.297-.016 4.953.078 1.922.094 3.625.531 5.031 1.937 1.406 1.406 1.844 3.109 1.937 5.031C24.016 8.703 24 10.344 24 12z"/>
    </symbol>
    <symbol id="c-symbol-logo" viewBox="0 0 55 45">
      <title>c-symbol-logo icon</title>
      <path d="M54.962 6.417c-.208-.508-.288-1.058-.521-1.558a5.195 5.195 0 0 0-1.007-1.58A6.82 6.82 0 0 0 52.11 2.12a5.513 5.513 0 0 0-1.931-.756C48.863.985 47.525.668 46.202.317c-.305-.03-.6-.12-.87-.266A33.971 33.971 0 0 0 41.651.05c-.47.167-.95.3-1.439.399a11.59 11.59 0 0 0-4.782 2.771c-.74.77-1.44 1.576-2.095 2.418-.771.866-1.471 1.792-2.224 2.675-.094.141-.287.08-.426.11-1.977-2.001-3.979-3.98-5.963-5.974A7.092 7.092 0 0 0 21.624.762a2.932 2.932 0 0 0-1.12-.185c-.306.03-.6-.133-.904-.056-.448.122-.93-.02-1.366.163a7.196 7.196 0 0 0-4.965 3.978c-.374-.124-.758-.21-1.14-.304a6.793 6.793 0 0 0-4.38.343 8.199 8.199 0 0 0-2.41 1.608c-.42.46-.793.963-1.11 1.5-.18.376-.385.742-.533 1.133-.092.294-.157.596-.256.887-.185.495-.036 1.032-.173 1.537.057.411.09.826.096 1.242.129.52.286 1.032.47 1.534.183.337.325.694.424 1.064-.81.33-1.536.835-2.128 1.479a6.814 6.814 0 0 0-1.915 3.202c-.058.143-.182.264-.178.427-.055.803-.027 1.608-.03 2.412-.021.26.02.521.12.762.162.307.196.661.35.973.34.845.826 1.622 1.439 2.296L16.158 41a18.734 18.734 0 0 0 2.079 1.937c1.02.797 2.182 1.39 3.426 1.747.361.064.717.156 1.065.275.883.073 1.771.024 2.657.036.32.02.641-.019.947-.114.33-.154.709-.142 1.044-.282a10.125 10.125 0 0 0 4.576-2.964 18.98 18.98 0 0 0 1.222-1.624c6.859-9.757 13.722-19.512 20.59-29.264a5.765 5.765 0 0 0 1.018-2.278 4.36 4.36 0 0 1 .186-.573c.042-.492.04-.987-.006-1.479zM17.27 7.457a2.84 2.84 0 0 1 1.589-2.03c.239-.123.508-.176.775-.152.366-.043.737.008 1.077.149.475.222.897.545 1.236.946 2.557 2.56 5.116 5.119 7.675 7.677.494.513 1.037.983 1.482 1.542.25.359.427.764.518 1.192.04.485-.067.97-.31 1.393a2.616 2.616 0 0 1-1.666 1.295 5.908 5.908 0 0 1-1.162-.01 3.454 3.454 0 0 1-1.196-.683c-3.06-3.061-6.122-6.123-9.184-9.183a2.865 2.865 0 0 1-.834-2.136zm-9.185 3.302a2.894 2.894 0 0 1 1.11-1.488c.243-.129.496-.24.756-.33.38-.038.764-.04 1.144-.003.43.12.826.343 1.153.648L26.183 23.52c.362.31.64.706.806 1.153.173.357.235.757.18 1.15-.09.412-.252.805-.476 1.161-.37.489-.898.835-1.494.981a2.564 2.564 0 0 1-2.32-.698c-3.887-3.892-7.776-7.781-11.668-11.67-.878-.897-1.797-1.756-2.648-2.68a2.427 2.427 0 0 1-.478-2.158zm9.956 20.524c-.474.524-.821 1.254-1.54 1.482-.365.1-.747.12-1.12.06a2.777 2.777 0 0 1-1.65-.932 2703.936 2703.936 0 0 1-8.34-8.346 2.484 2.484 0 0 1-.51-2.687 2.592 2.592 0 0 1 2.053-1.551c.451-.028.902.052 1.317.232.456.264.866.602 1.21 1.001 2.423 2.428 4.848 4.854 7.276 7.277a6.75 6.75 0 0 1 1.278 1.472c.095.237.156.486.233.731.09.432.016.881-.207 1.261zM49.959 7.931C43.391 17.268 36.821 26.604 30.25 35.94c-.63.822-1.167 1.712-1.818 2.519a5.318 5.318 0 0 1-3.139 1.798c-.618.02-1.238.022-1.855-.002a5.723 5.723 0 0 1-2.775-1.454c-.591-.536-1.126-1.13-1.722-1.658l.001-.26a7.838 7.838 0 0 0 2.295-1.789 6.363 6.363 0 0 0 1.365-2.576c.354.007.704.067 1.04.179.52.041 1.044.01 1.567.022a14.272 14.272 0 0 0 1.506-.225 8.436 8.436 0 0 0 2.647-1.462A6.938 6.938 0 0 0 31.82 26.1c-.01-.44.017-.882-.014-1.322a2.8 2.8 0 0 1-.075-1.004 7.158 7.158 0 0 0 4.543-6.1 6.374 6.374 0 0 0-.131-2.228 7.126 7.126 0 0 0-1.67-3.241c-.135-.096-.103-.258-.092-.4.486-.671 1.081-1.255 1.574-1.921.452-.58.984-1.094 1.41-1.693.259-.307.517-.614.781-.916a6.684 6.684 0 0 1 3.385-2.266c.486-.17.996-.258 1.511-.262a7.037 7.037 0 0 1 1.839.109c.514.139 1.035.244 1.543.41.341.033.675.119.99.254.281.045.559.11.83.194.473.089.933.234 1.37.433.318.242.546.583.648.97-.015.296-.12.58-.303.814z"/>
    </symbol>
    <symbol id="c-symbol-play" viewBox="0 0 24 24">
      <title>c-symbol-play icon</title>
      <path fill-rule="evenodd" d="M7 5.538c0-.548.388-.763.86-.484l10.785 6.37c.475.28.472.736 0 1.015L7.86 18.809c-.474.28-.859.066-.859-.484V5.538z"/>
    </symbol>
    <symbol id="c-symbol-play_circle" viewBox="0 0 24 24">
      <title>c-symbol-play_circle icon</title>
      <path d="M9.98 16.507L15.99 12 9.98 7.493v9.014zM12 2c5.54 0 10 4.46 10 10s-4.46 10-10 10S2 17.54 2 12 6.46 2 12 2z"/>
    </symbol>
    <symbol id="c-symbol-snapchat" viewBox="0 0 24 24">
      <title>c-symbol-snapchat icon</title>
      <path d="M20 15.938a.407.407 0 0 0-.344-.422c-1.422-.297-2.5-1.297-3.094-2.609a.857.857 0 0 1-.109-.391c0-.703 1.937-.562 1.937-1.563 0-.422-.516-.688-.891-.688-.344 0-.625.25-.984.25-.063 0-.125-.016-.187-.031.047-.594.078-1.203.078-1.797 0-.531-.031-1.281-.266-1.781-.75-1.625-2.187-2.578-3.984-2.578-1.953 0-3.437.734-4.297 2.578-.234.5-.281 1.25-.281 1.797 0 .594.047 1.188.094 1.781a1.174 1.174 0 0 1-.234.031c-.344 0-.641-.25-.969-.25-.391 0-.859.266-.859.703 0 .969 1.937.844 1.937 1.547a.87.87 0 0 1-.109.391c-.609 1.313-1.656 2.297-3.094 2.609a.407.407 0 0 0-.344.422c0 .734 1.656 1 2.156 1.078.141.375.078 1.031.625 1.031.406 0 .797-.156 1.203-.156 1.656 0 2.094 1.484 4 1.484 1.984 0 2.359-1.484 4.031-1.484.406 0 .812.141 1.219.141.531 0 .484-.656.609-1.016.5-.078 2.156-.344 2.156-1.078l.001.001zM24 4.5v15c0 2.484-2.016 4.5-4.5 4.5h-15A4.502 4.502 0 0 1 0 19.5v-15C0 2.016 2.016 0 4.5 0h15C21.984 0 24 2.016 24 4.5z"/>
    </symbol></svg>