<svg xmlns="http://www.w3.org/2000/svg" class="c-symbolset">
    <symbol id="c-symbol-arrow" viewBox="0 0 24 24">
      <title>c-symbol-arrow icon</title>
      <path d="M7 8.586L5.586 10l5.933 5.934 5.933-5.933-1.414-1.414-4.519 4.519z"/>
    </symbol>
    <symbol id="c-symbol-caret" viewBox="0 0 24 24">
      <title>c-symbol-caret icon</title>
      <path fill-rule="evenodd" d="M12 15l5-5H7z"/>
    </symbol>
    <symbol id="c-symbol-close" viewBox="0 0 24 24">
      <title>c-symbol-close icon</title>
      <path d="M4.293 5.707l14 14 1.414-1.414-14-14z"/><path d="M5.707 19.707l14-14-1.414-1.414-14 14z"/>
    </symbol>
    <symbol id="c-symbol-hamburger" viewBox="0 0 24 24">
      <title>c-symbol-hamburger icon</title>
      <path fill-rule="evenodd" d="M2 5h20v2H2V5zm0 12h20v2H2v-2zm0-6h20v2H2v-2z"/>
    </symbol>
    <symbol id="c-symbol-logo" viewBox="0 0 55 45">
      <title>c-symbol-logo icon</title>
      <path d="M54.962 6.417c-.208-.508-.288-1.058-.521-1.558a5.195 5.195 0 0 0-1.007-1.58A6.82 6.82 0 0 0 52.11 2.12a5.513 5.513 0 0 0-1.931-.756C48.863.985 47.525.668 46.202.317c-.305-.03-.6-.12-.87-.266A33.971 33.971 0 0 0 41.651.05c-.47.167-.95.3-1.439.399a11.59 11.59 0 0 0-4.782 2.771c-.74.77-1.44 1.576-2.095 2.418-.771.866-1.471 1.792-2.224 2.675-.094.141-.287.08-.426.11-1.977-2.001-3.979-3.98-5.963-5.974A7.092 7.092 0 0 0 21.624.762a2.932 2.932 0 0 0-1.12-.185c-.306.03-.6-.133-.904-.056-.448.122-.93-.02-1.366.163a7.196 7.196 0 0 0-4.965 3.978c-.374-.124-.758-.21-1.14-.304a6.793 6.793 0 0 0-4.38.343 8.199 8.199 0 0 0-2.41 1.608c-.42.46-.793.963-1.11 1.5-.18.376-.385.742-.533 1.133-.092.294-.157.596-.256.887-.185.495-.036 1.032-.173 1.537.057.411.09.826.096 1.242.129.52.286 1.032.47 1.534.183.337.325.694.424 1.064-.81.33-1.536.835-2.128 1.479a6.814 6.814 0 0 0-1.915 3.202c-.058.143-.182.264-.178.427-.055.803-.027 1.608-.03 2.412-.021.26.02.521.12.762.162.307.196.661.35.973.34.845.826 1.622 1.439 2.296L16.158 41a18.734 18.734 0 0 0 2.079 1.937c1.02.797 2.182 1.39 3.426 1.747.361.064.717.156 1.065.275.883.073 1.771.024 2.657.036.32.02.641-.019.947-.114.33-.154.709-.142 1.044-.282a10.125 10.125 0 0 0 4.576-2.964 18.98 18.98 0 0 0 1.222-1.624c6.859-9.757 13.722-19.512 20.59-29.264a5.765 5.765 0 0 0 1.018-2.278 4.36 4.36 0 0 1 .186-.573c.042-.492.04-.987-.006-1.479zM17.27 7.457a2.84 2.84 0 0 1 1.589-2.03c.239-.123.508-.176.775-.152.366-.043.737.008 1.077.149.475.222.897.545 1.236.946 2.557 2.56 5.116 5.119 7.675 7.677.494.513 1.037.983 1.482 1.542.25.359.427.764.518 1.192.04.485-.067.97-.31 1.393a2.616 2.616 0 0 1-1.666 1.295 5.908 5.908 0 0 1-1.162-.01 3.454 3.454 0 0 1-1.196-.683c-3.06-3.061-6.122-6.123-9.184-9.183a2.865 2.865 0 0 1-.834-2.136zm-9.185 3.302a2.894 2.894 0 0 1 1.11-1.488c.243-.129.496-.24.756-.33.38-.038.764-.04 1.144-.003.43.12.826.343 1.153.648L26.183 23.52c.362.31.64.706.806 1.153.173.357.235.757.18 1.15-.09.412-.252.805-.476 1.161-.37.489-.898.835-1.494.981a2.564 2.564 0 0 1-2.32-.698c-3.887-3.892-7.776-7.781-11.668-11.67-.878-.897-1.797-1.756-2.648-2.68a2.427 2.427 0 0 1-.478-2.158zm9.956 20.524c-.474.524-.821 1.254-1.54 1.482-.365.1-.747.12-1.12.06a2.777 2.777 0 0 1-1.65-.932 2703.936 2703.936 0 0 1-8.34-8.346 2.484 2.484 0 0 1-.51-2.687 2.592 2.592 0 0 1 2.053-1.551c.451-.028.902.052 1.317.232.456.264.866.602 1.21 1.001 2.423 2.428 4.848 4.854 7.276 7.277a6.75 6.75 0 0 1 1.278 1.472c.095.237.156.486.233.731.09.432.016.881-.207 1.261zM49.959 7.931C43.391 17.268 36.821 26.604 30.25 35.94c-.63.822-1.167 1.712-1.818 2.519a5.318 5.318 0 0 1-3.139 1.798c-.618.02-1.238.022-1.855-.002a5.723 5.723 0 0 1-2.775-1.454c-.591-.536-1.126-1.13-1.722-1.658l.001-.26a7.838 7.838 0 0 0 2.295-1.789 6.363 6.363 0 0 0 1.365-2.576c.354.007.704.067 1.04.179.52.041 1.044.01 1.567.022a14.272 14.272 0 0 0 1.506-.225 8.436 8.436 0 0 0 2.647-1.462A6.938 6.938 0 0 0 31.82 26.1c-.01-.44.017-.882-.014-1.322a2.8 2.8 0 0 1-.075-1.004 7.158 7.158 0 0 0 4.543-6.1 6.374 6.374 0 0 0-.131-2.228 7.126 7.126 0 0 0-1.67-3.241c-.135-.096-.103-.258-.092-.4.486-.671 1.081-1.255 1.574-1.921.452-.58.984-1.094 1.41-1.693.259-.307.517-.614.781-.916a6.684 6.684 0 0 1 3.385-2.266c.486-.17.996-.258 1.511-.262a7.037 7.037 0 0 1 1.839.109c.514.139 1.035.244 1.543.41.341.033.675.119.99.254.281.045.559.11.83.194.473.089.933.234 1.37.433.318.242.546.583.648.97-.015.296-.12.58-.303.814z"/>
    </symbol></svg>