<svg xmlns="http://www.w3.org/2000/svg" width="24" height="24" viewBox="0 0 24 24">
  <path fill="#000000" d="M19.5001875,0 C21.984084,0 24,2.015916 24,4.49981251 L24,19.4991875 C24,21.983084 21.984084,23.999 19.5001875,23.999 L16.5623099,23.999 L16.5623099,14.7023874 L19.6711804,14.7023874 L20.1401608,11.0775384 L16.5623099,11.0775384 L16.5623099,8.76563477 C16.5623099,7.71867839 16.8432982,7.01570768 18.359235,7.01570768 L20.2651556,6.99970835 L20.2651556,3.76584309 C19.9371693,3.71884505 18.7962168,3.62484896 17.4842715,3.62484896 C14.7183867,3.62484896 12.8124661,5.31177868 12.8124661,8.40564976 L12.8124661,11.0775384 L9.68759635,11.0775384 L9.68759635,14.7023874 L12.8124661,14.7023874 L12.8124661,23.999 L4.49981251,23.999 C2.015916,23.999 0,21.983084 0,19.4991875 L0,4.49981251 C0,2.015916 2.015916,0 4.49981251,0 L19.4991875,0 L19.5001875,0 Z"/>
</svg>
