<svg xmlns="http://www.w3.org/2000/svg" width="24" height="24" viewBox="0 0 24 24">
  <path fill="#000000" d="M16,12 C16,9.797 14.203,8 12,8 C9.797,8 8,9.797 8,12 C8,14.203 9.797,16 12,16 C14.203,16 16,14.203 16,12 Z M18.156,12 C18.156,15.406 15.406,18.156 12,18.156 C8.594,18.156 5.844,15.406 5.844,12 C5.844,8.594 8.594,5.844 12,5.844 C15.406,5.844 18.156,8.594 18.156,12 Z M19.844,5.594 C19.844,6.391 19.203,7.031 18.407,7.031 C17.611,7.031 16.97,6.39 16.97,5.594 C16.97,4.798 17.611,4.157 18.407,4.157 C19.203,4.157 19.844,4.798 19.844,5.594 Z M12,2.156 C10.25,2.156 6.5,2.015 4.922,2.64 C4.375,2.859 3.969,3.124 3.547,3.546 C3.125,3.968 2.859,4.374 2.641,4.921 C2.016,6.499 2.157,10.249 2.157,11.999 C2.157,13.749 2.016,17.499 2.641,19.077 C2.86,19.624 3.125,20.03 3.547,20.452 C3.969,20.874 4.375,21.14 4.922,21.358 C6.5,21.983 10.25,21.842 12,21.842 C13.75,21.842 17.5,21.983 19.078,21.358 C19.625,21.139 20.031,20.874 20.453,20.452 C20.875,20.03 21.141,19.624 21.359,19.077 C21.984,17.499 21.843,13.749 21.843,11.999 C21.843,10.249 21.984,6.499 21.359,4.921 C21.14,4.374 20.875,3.968 20.453,3.546 C20.031,3.124 19.625,2.858 19.078,2.64 C17.5,2.015 13.75,2.156 12,2.156 L12,2.156 Z M24,12 C24,13.656 24.016,15.297 23.922,16.953 C23.828,18.875 23.391,20.578 21.985,21.984 C20.579,23.39 18.876,23.828 16.954,23.921 C15.298,24.015 13.657,23.999 12.001,23.999 C10.345,23.999 8.704,24.015 7.048,23.921 C5.126,23.827 3.423,23.39 2.017,21.984 C0.611,20.578 0.173,18.875 0.08,16.953 C-0.014,15.297 0.002,13.656 0.002,12 C0.002,10.344 -0.014,8.703 0.08,7.047 C0.174,5.125 0.611,3.422 2.017,2.016 C3.423,0.61 5.126,0.172 7.048,0.079 C8.704,-0.015 10.345,0.001 12.001,0.001 C13.657,0.001 15.298,-0.015 16.954,0.079 C18.876,0.173 20.579,0.61 21.985,2.016 C23.391,3.422 23.829,5.125 23.922,7.047 C24.016,8.703 24,10.344 24,12 Z"/>
</svg>
