<svg xmlns="http://www.w3.org/2000/svg" width="55" height="45" viewBox="0 0 55 45">
  <path fill="#0A0A0A" d="M54.96245,6.4174 C54.75391,5.90893 54.67405,5.35874 54.44066,4.85914 C54.2037881,4.27569005 53.8628098,3.7401682 53.43436,3.2787 C53.0448608,2.8371689 52.5998272,2.44793263 52.11036,2.1207 C51.5200522,1.74870934 50.8644997,1.49214851 50.17851,1.36464 C48.86251,0.98572 47.52521,0.66804 46.20211,0.31664 C45.8973261,0.287631678 45.6015364,0.197385296 45.33247,0.05131 C44.1061581,-0.0161504323 42.8770902,-0.0170584322 41.65068,0.04859 C41.1813806,0.215993353 40.7006552,0.349447221 40.21222,0.44792 C38.4180024,0.972530095 36.777299,1.92334115 35.43006,3.21925 C34.6898598,3.98808803 33.9905212,4.79524485 33.33493,5.63739 C32.56379,6.50348 31.86364,7.42903 31.11113,8.31198 C31.01707,8.45308 30.82362,8.39274 30.68518,8.4229 C28.70807,6.4209 26.70612,4.4429 24.72191,2.44809 C23.847725,1.63417712 22.7821382,1.05423062 21.624,0.76205 C21.2660193,0.628058471 20.8852934,0.565355458 20.50325,0.57747 C20.19799,0.60764 19.90337,0.44436 19.59989,0.52068 C19.15176,0.64314 18.66989,0.50116 18.23419,0.68396 C16.0510561,1.16671328 14.2163269,2.63677667 13.26919,4.66213 C12.89471,4.5379 12.51136,4.45271 12.12978,4.35776 C10.6717189,3.98363461 9.13068669,4.10443243 7.74873,4.70118 C6.85656895,5.08993977 6.04074891,5.63443608 5.33946,6.30918 C4.91827914,6.76932599 4.54595427,7.27191094 4.22846,7.80887 C4.04832,8.18512 3.84422,8.55073 3.69602,8.94207 C3.60373,9.2358 3.53896,9.53751 3.43957,9.82946 C3.25499,10.32374 3.40407,10.86061 3.26742,11.36554 C3.32423874,11.7773612 3.35623984,12.1922267 3.36325,12.60789 C3.49197614,13.1274055 3.64868126,13.6395855 3.83268,14.14219 C4.0159684,14.4786848 4.15836894,14.8358863 4.25685,15.20619 C3.44742963,15.5365061 2.72083473,16.0412984 2.12885,16.68459 C1.20495453,17.5531352 0.541750837,18.6622577 0.21385,19.88718 C0.15624,20.03 0.032,20.15068 0.03555,20.314 C-0.01858,21.11709 0.00893,21.922 0.00627,22.72593 C-0.0153025347,22.9859432 0.0257789997,23.2473391 0.12607,23.4882 C0.28758,23.7952 0.32219,24.14931 0.4757,24.46078 C0.815085811,25.3057847 1.30248684,26.0834726 1.915,26.7573 C6.66166667,31.5048467 11.4092133,36.2523933 16.15764,40.99994 C16.8006485,41.6973753 17.4957009,42.3449645 18.2368,42.93712 C19.2561767,43.7337946 20.4194285,44.3267195 21.66302,44.68351 C22.0244819,44.7478734 22.3804807,44.8398392 22.72789,44.9586 C23.61089,45.03225 24.49913,44.9826 25.38474,44.99498 C25.7049188,45.0147316 26.0260254,44.9762488 26.33247,44.8814 C26.66169,44.72699 27.04061,44.7394 27.37604,44.59921 C29.1437866,44.048287 30.7266082,43.023151 31.95232,41.63532 C32.3883396,41.116221 32.7962342,40.5741341 33.17425,40.01139 C40.03295,30.25363 46.89606,20.4988333 53.76358,10.747 C54.2654023,10.0711521 54.6131245,9.29360427 54.78231,8.469 C54.830841,8.27386532 54.8928123,8.08232147 54.96778,7.89574 C55.010376,7.40379876 55.0085921,6.9090213 54.96245,6.4174 L54.96245,6.4174 Z M17.27045,7.45654 C17.444777,6.56489837 18.0352298,5.81050539 18.85888,5.42708 C19.097766,5.30391636 19.3667708,5.25128288 19.63446,5.27533 C20.0000272,5.23237772 20.3705089,5.28338216 20.71087,5.42352 C21.1863581,5.64594985 21.6080616,5.96867342 21.94701,6.36952 C24.5044767,8.92964667 27.0628267,11.4888833 29.62206,14.04723 C30.11634,14.56015 30.65942,15.03046 31.104,15.58863 C31.3543387,15.9477616 31.530523,16.3532228 31.62224,16.78128 C31.6629085,17.266076 31.5548769,17.7517542 31.31254,18.1736 C30.963665,18.8203691 30.3588433,19.2905747 29.64602,19.4692 C29.2594102,19.5038141 28.8703302,19.5002468 28.48442,19.45855 C28.0439176,19.3136962 27.6370974,19.0816161 27.28822,18.77615 C24.2276067,15.71465 21.1661033,12.6534433 18.10371,9.59253 C17.5407802,9.02753771 17.2388252,8.25347425 17.27048,7.45654 L17.27045,7.45654 Z M8.08506,10.75854 C8.28153504,10.1544543 8.67134024,9.63181024 9.19433,9.27125 C9.43795121,9.14201215 9.69098792,9.03136395 9.95128,8.94025 C10.331585,8.90253622 10.7146437,8.90164541 11.09512,8.93759 C11.5257899,9.05832719 11.9211349,9.28080112 12.24785,9.58627 C16.8924567,14.2308767 21.53736,18.8754833 26.18256,23.52009 C26.5452389,23.8293478 26.8228979,24.2261333 26.9892,24.67281 C27.1620739,25.0297811 27.2244869,25.4302205 27.16845,25.82287 C27.0782976,26.2346677 26.9173631,26.6276958 26.69281,26.98446 C26.3220817,27.4728265 25.7948279,27.8190041 25.19933,27.96503 C24.3579643,28.1351264 23.4872917,27.8729907 22.87969,27.26665 C18.9920233,23.3754367 15.1025833,19.4857033 11.21137,15.59745 C10.33286,14.7003 9.41437,13.8413 8.56337,12.91753 C8.06634832,12.31649 7.8884053,11.513235 8.08509,10.75852 L8.08506,10.75854 Z M18.04074,31.283 C17.56688,31.80745 17.2199,32.53689 16.50112,32.76495 C16.1363739,32.8646482 15.7544814,32.8849212 15.38123,32.8244 C14.7388056,32.7169769 14.1545763,32.3871708 13.73068,31.89264 C10.9451533,29.11688 8.16554667,26.3349067 5.39186,23.54672 C4.69933624,22.8339319 4.4982784,21.7769956 4.88072,20.85972 C5.24209412,20.0154232 6.02322385,19.4253582 6.93415,19.30856 C7.38527649,19.2813139 7.8364631,19.3609538 8.251,19.541 C8.70744526,19.8048616 9.11655366,20.143194 9.4614,20.542 C11.88398,22.9699 14.3092233,25.3957333 16.73713,27.8195 C17.2320039,28.2455426 17.6624384,28.7411393 18.01498,29.2908 C18.10998,29.52773 18.17116,29.77709 18.24836,30.02201 C18.3384491,30.4535318 18.2644218,30.9031401 18.04074,31.283 L18.04074,31.283 Z M49.95934,7.93129 C43.39086,17.26843 36.8212,26.6043833 30.25036,35.93915 C29.62031,36.76088 29.08255,37.65093 28.43209,38.45757 C27.6281814,39.4054875 26.5176646,40.0419074 25.29339,40.25631 C24.67488,40.27584 24.05548,40.27849 23.43786,40.25365 C22.3957239,40.0366309 21.4347692,39.5332557 20.663,38.8001 C20.072,38.2641 19.5369,37.67045 18.94057,37.14156 C18.94235,37.05456 18.94235,36.96763 18.94235,36.88156 C19.8121582,36.4339469 20.5904918,35.8274694 21.23714,35.09346 C21.8853101,34.351954 22.3525079,33.4701109 22.60195,32.51736 C22.9556036,32.5242888 23.3061989,32.5844192 23.64195,32.69573 C24.16285,32.73743 24.68641,32.70549 25.20909,32.71791 C25.7147099,32.6696266 26.2173918,32.5943862 26.71499,32.49251 C27.6781781,32.1687509 28.5749456,31.6736281 29.36208,31.031 C30.8269957,29.797023 31.7166056,28.0123383 31.82015,26.09976 C31.8095,25.65961 31.83701,25.21769 31.80595,24.77843 C31.7202696,24.4509028 31.6947125,24.1105497 31.73052,23.7739 C34.289686,22.7799151 36.0548336,20.4097391 36.274,17.67308 C36.3615249,16.92868 36.3170672,16.1746765 36.14267,15.44572 C35.8763832,14.2389426 35.3008488,13.1221557 34.47257,12.205 C34.33768,12.10917 34.36963,11.94677 34.38117,11.80567 C34.86746,11.13392 35.46201,10.55001 35.9554,9.88358 C36.40708,9.30323 36.93863,8.79031 37.36547,8.19132 C37.6237,7.88432 37.88193,7.57725 38.14637,7.27464 C39.011386,6.18576566 40.1944987,5.3938183 41.53088,5.00913 C42.016827,4.83946241 42.5274081,4.75101795 43.04211,4.74735 C43.6570961,4.70272524 44.27528,4.73912361 44.88078,4.85561 C45.39458,4.99493 45.91637,5.09961 46.42396,5.26561 C46.7652458,5.29882621 47.0993212,5.38473934 47.41429,5.52029 C47.6954377,5.56477032 47.973021,5.62942054 48.24489,5.71374 C48.7169229,5.80301223 49.1765956,5.94837629 49.61413,6.14674 C49.9320071,6.38892364 50.1599775,6.73025799 50.26192,7.11666 C50.2472215,7.41285586 50.1415629,7.69731814 49.95934,7.93129 L49.95934,7.93129 Z"/>
</svg>
