<svg xmlns="http://www.w3.org/2000/svg" width="24" height="24" viewBox="0 0 24 24">
  <path fill="#000000" d="M20,15.938 C20,15.719 19.875,15.563 19.656,15.516 C18.234,15.219 17.156,14.219 16.562,12.907 C16.499,12.782 16.453,12.657 16.453,12.516 C16.453,11.813 18.39,11.954 18.39,10.953 C18.39,10.531 17.874,10.265 17.499,10.265 C17.155,10.265 16.874,10.515 16.515,10.515 C16.452,10.515 16.39,10.499 16.328,10.484 C16.375,9.89 16.406,9.281 16.406,8.687 C16.406,8.156 16.375,7.406 16.14,6.906 C15.39,5.281 13.953,4.328 12.156,4.328 C10.203,4.328 8.719,5.062 7.859,6.906 C7.625,7.406 7.578,8.156 7.578,8.703 C7.578,9.297 7.625,9.891 7.672,10.484 C7.594,10.5 7.516,10.515 7.438,10.515 C7.094,10.515 6.797,10.265 6.469,10.265 C6.078,10.265 5.61,10.531 5.61,10.968 C5.61,11.937 7.547,11.812 7.547,12.515 C7.547,12.656 7.5,12.781 7.438,12.906 C6.829,14.219 5.782,15.203 4.344,15.515 C4.125,15.562 4,15.718 4,15.937 C4,16.671 5.656,16.937 6.156,17.015 C6.297,17.39 6.234,18.046 6.781,18.046 C7.187,18.046 7.578,17.89 7.984,17.89 C9.64,17.89 10.078,19.374 11.984,19.374 C13.968,19.374 14.343,17.89 16.015,17.89 C16.421,17.89 16.827,18.031 17.234,18.031 C17.765,18.031 17.718,17.375 17.843,17.015 C18.343,16.937 19.999,16.671 19.999,15.937 L20,15.938 Z M24,4.5 L24,19.5 C24,21.984 21.984,24 19.5,24 L4.5,24 C2.016,24 0,21.984 0,19.5 L0,4.5 C0,2.016 2.016,0 4.5,0 L19.5,0 C21.984,0 24,2.016 24,4.5 Z"/>
</svg>
